<svg xmlns="http://www.w3.org/2000/svg" xmlns:xlink="http://www.w3.org/1999/xlink">
	<symbol viewBox="0 0 99.04 99.04" id="vk">
		<path class="cls-1" d="M49.52,0a49.51,49.51,0,1,1-35,14.5A49.34,49.34,0,0,1,49.52,0ZM81.79,17.25A45.64,45.64,0,1,0,95.17,49.52,45.47,45.47,0,0,0,81.79,17.25Z"/>
		<path class="cls-2" d="M76.91,35.73c-.74-.55-3.4-.55-6-.55a37.37,37.37,0,0,0-6,.3C64.3,35.7,63,38.83,61.34,42c-1.93,3.62-4.25,7.13-5.74,7.08-1.94,0-1.48-6-1.34-10.37,0-2.88-.44-3.81-.85-4.05a16,16,0,0,0-3.81-1.4s-8.39-.63-9.57,3c1.62.22,4.36-.28,3.29,10.93-.08.55-1.29,5.16-5.18-1.07-1-1.56-4.72-10.91-6-11-4.31-.08-8.58-.28-10.06.55S23.91,43,29.42,51.58c4.47,7.07,9.21,12.55,17.44,13.92,1.56.17,5.56.33,6.85-.27.85-.41-.22-6.5,2.72-7.1,1.29-.25,6.3,6.36,8.19,7.1a18.39,18.39,0,0,0,6.26.55c2.79-.08,6,.27,6.27-1.65.69-4.19-8.47-9.68-8.71-12.25-.22-1.87,3.34-5.3,5.15-7.93,2.25-3.18,4.72-7,3.32-8.22Z"/>
	</symbol>
	<symbol viewBox="0 0 289 289" id="fb">
		<path xmlns="http://www.w3.org/2000/svg" d="M167.172,288.861h-62.16V159.347H70.769v-59.48h34.242v-33.4C105.011,35.804,124.195,0,178.284,0   c19.068,0,33.066,1.787,33.651,1.864l5.739,0.746l-1.382,55.663l-6.324-0.058c-0.013,0-14.223-0.135-29.724-0.135   c-11.536,0-13.066,2.847-13.066,14.171v27.629h50.913l-2.821,59.48h-48.086v129.501H167.172z M117.858,276.007h36.453V146.5h48.677   l1.607-33.779h-50.284V72.238c0-13.368,3.078-27.025,25.919-27.025c9.178,0,17.899,0.045,23.509,0.09l0.778-31.292   c-5.675-0.508-15.116-1.157-26.247-1.157c-44.544,0-60.419,27.693-60.419,53.613v46.254H83.61V146.5h34.242v129.507H117.858z"/>
	</symbol>
	<symbol viewBox="0 0 512 512" id="inst">
		<path xmlns="http://www.w3.org/2000/svg" d="m373.40625 0h-234.8125c-76.421875 0-138.59375 62.171875-138.59375 138.59375v234.816406c0 76.417969 62.171875 138.589844 138.59375 138.589844h234.816406c76.417969 0 138.589844-62.171875 138.589844-138.589844v-234.816406c0-76.421875-62.171875-138.59375-138.59375-138.59375zm108.578125 373.410156c0 59.867188-48.707031 108.574219-108.578125 108.574219h-234.8125c-59.871094 0-108.578125-48.707031-108.578125-108.574219v-234.816406c0-59.871094 48.707031-108.578125 108.578125-108.578125h234.816406c59.867188 0 108.574219 48.707031 108.574219 108.578125zm0 0"/>
		<path xmlns="http://www.w3.org/2000/svg" d="m256 116.003906c-77.195312 0-139.996094 62.800782-139.996094 139.996094s62.800782 139.996094 139.996094 139.996094 139.996094-62.800782 139.996094-139.996094-62.800782-139.996094-139.996094-139.996094zm0 249.976563c-60.640625 0-109.980469-49.335938-109.980469-109.980469 0-60.640625 49.339844-109.980469 109.980469-109.980469 60.644531 0 109.980469 49.339844 109.980469 109.980469 0 60.644531-49.335938 109.980469-109.980469 109.980469zm0 0"/>
		<path xmlns="http://www.w3.org/2000/svg" d="m399.34375 66.285156c-22.8125 0-41.367188 18.558594-41.367188 41.367188 0 22.8125 18.554688 41.371094 41.367188 41.371094s41.371094-18.558594 41.371094-41.371094-18.558594-41.367188-41.371094-41.367188zm0 52.71875c-6.257812 0-11.351562-5.09375-11.351562-11.351562 0-6.261719 5.09375-11.351563 11.351562-11.351563 6.261719 0 11.355469 5.089844 11.355469 11.351563 0 6.257812-5.09375 11.351562-11.355469 11.351562zm0 0"/>
	</symbol>

	<symbol viewBox="0 0 99.04 99.04" id="odn">
		<path class="cls-1" d="M49.52,0a49.51,49.51,0,1,1-35,14.5A49.34,49.34,0,0,1,49.52,0Zm32.3,17.25A45.71,45.71,0,1,0,95.17,49.52,45.59,45.59,0,0,0,81.82,17.25Z"/>
		<path class="cls-1" d="M38,79l-.6-.17A4.09,4.09,0,0,1,34.55,75a3.47,3.47,0,0,1,1-2.24Q41,67.33,46.44,61.86c.08-.07.14-.15.25-.27-.29-.05-.52-.09-.76-.11a28.69,28.69,0,0,1-7.12-1.72,18.16,18.16,0,0,1-4.06-2.32,19.85,19.85,0,0,1-2-1.72,2.73,2.73,0,0,1-.89-2.12,3.88,3.88,0,0,1,2.87-3.77,3.82,3.82,0,0,1,2.8.52c.69.41,1.33.9,2,1.34a15.3,15.3,0,0,0,4.36,1.86,22.54,22.54,0,0,0,5.59.81,18.76,18.76,0,0,0,2.7-.2,21,21,0,0,0,5.39-1.41,16.48,16.48,0,0,0,3.38-2,4.55,4.55,0,0,1,2.58-1,3.25,3.25,0,0,1,3.05,1.65,4.34,4.34,0,0,1,.68,1.94,3.07,3.07,0,0,1-.91,2.4,15.4,15.4,0,0,1-2.72,2.18,20.45,20.45,0,0,1-8.23,3.19c-1,.17-1.91.3-2.91.46a2.33,2.33,0,0,0,.19.23L63.2,72.39a4.19,4.19,0,0,1,1.2,1.73,3.42,3.42,0,0,1-.88,3.55A3.81,3.81,0,0,1,61.28,79a.51.51,0,0,0-.15.07h-.69c-.09,0-.18-.07-.27-.09a3.22,3.22,0,0,1-1.68-.83c-.25-.24-.5-.48-.74-.73l-8-8c-.14-.15-.24-.17-.4,0-2.69,2.7-5.39,5.39-8.07,8.1A4.34,4.34,0,0,1,38.77,79s-.05,0-.07,0Z"/>
		<path class="cls-1" d="M49.52,20a14.91,14.91,0,1,1-14.9,14.71A14.91,14.91,0,0,1,49.52,20ZM56.88,35a7.37,7.37,0,1,0-7.52,7.35A7.37,7.37,0,0,0,56.88,35Z"/>
	</symbol>


	<symbol viewBox="13 13 13.5 13.5" id="user">
		<path d="M20.2,20.6c-2.2,0-4-2-4-4.5s1.8-4.5,4-4.5s4,2,4,4.5S22.4,20.6,20.2,20.6z M20.2,12.6c-1.7,0-3,1.6-3,3.5s1.3,3.5,3,3.5     s3-1.6,3-3.5S21.9,12.6,20.2,12.6z"/>

		<path d="M26.2,27.4c-0.3,0-0.5-0.2-0.5-0.5v-3.4c0-1.9-1.5-3.4-3.4-3.4H22c-0.3,0-0.5-0.2-0.5-0.5s0.2-0.5,0.5-0.5h0.4     c2.4,0,4.4,2,4.4,4.4v3.4C26.7,27.2,26.5,27.4,26.2,27.4z"/>

		<path d="M14.2,27.4c-0.3,0-0.5-0.2-0.5-0.5v-3.4c0-2.4,2-4.4,4.4-4.4h0.4c0.3,0,0.5,0.2,0.5,0.5s-0.2,0.5-0.5,0.5h-0.4     c-1.9,0-3.4,1.5-3.4,3.4v3.4C14.7,27.2,14.5,27.4,14.2,27.4z"/>
	</symbol>

	<symbol viewBox="12 12 16 16" id="gramm">
		<path d="M20.9,28.5c-0.8,0-1.5-0.6-1.7-1.4l-0.8-4.9c0-0.3-0.3-0.5-0.6-0.6l-4.9-0.8c-0.8-0.1-1.3-0.7-1.4-1.5      c-0.1-0.8,0.3-1.5,1.1-1.7l12.6-4.9c0.7-0.3,1.6,0,2,0.6c0.3,0.5,0.4,1,0.2,1.6l-4.9,12.6C22.2,28.1,21.6,28.5,20.9,28.5z       M25.8,13.5c-0.1,0-0.2,0-0.3,0l-12.6,4.9c-0.4,0.1-0.5,0.5-0.4,0.7c0,0.2,0.2,0.5,0.6,0.6l4.9,0.8c0.7,0.1,1.3,0.7,1.4,1.4      l0.8,4.9c0.1,0.4,0.4,0.6,0.7,0.6c0.1,0,0.5,0,0.6-0.4l4.9-12.6c0.1-0.3,0-0.5-0.1-0.6C26.3,13.6,26,13.5,25.8,13.5z"/>
		<path d="M18.2,21.1l7.6-7.6c0.2-0.2,0.5-0.2,0.7,0s0.2,0.5,0,0.7l-7.6,7.6L18.2,21.1z"/>
	</symbol>

	<symbol viewBox="12 12 14 14" id="search">
		<path d="M18.5,24c-3,0-5.5-2.5-5.5-5.5s2.5-5.5,5.5-5.5s5.5,2.5,5.5,5.5S21.5,24,18.5,24z M18.5,14     C16,14,14,16,14,18.5s2,4.5,4.5,4.5s4.5-2,4.5-4.5S21,14,18.5,14z"/>
		<path d="M22.5,21.8l4.4,4.4c0.2,0.2,0.2,0.5,0,0.7C26.8,27,26.6,27,26.5,27s-0.3,0-0.4-0.1l-4.4-4.4L22.5,21.8z"/>
	</symbol>

	<symbol viewBox="12 14 14.5 14.5" id="cart">
		<path d="M24.3,25.4h-7.1c-1.1,0-2.1-0.7-2.4-1.8l-2-6.9c0,0,0,0,0,0L12.3,15l-1-0.3c-0.3-0.1-0.4-0.4-0.3-0.6      c0.1-0.3,0.4-0.4,0.6-0.3l1.2,0.4c0.2,0,0.3,0.2,0.3,0.3l0.5,1.6L26.6,17c0.4,0,0.9,0.3,1.1,0.6c0.3,0.4,0.3,0.8,0.2,1.3      l-1.2,4.7C26.4,24.7,25.4,25.4,24.3,25.4z M14,17.1l1.8,6.2c0.2,0.6,0.8,1.1,1.4,1.1h7.1c0.7,0,1.3-0.5,1.4-1.1l1.2-4.7      c0-0.1,0-0.3-0.1-0.4c-0.1-0.1-0.2-0.2-0.4-0.2L14,17.1z"/>
		<path d="M16.9,28.4c-1.1,0-2-0.9-2-2s0.9-2,2-2s2,0.9,2,2S18,28.4,16.9,28.4z M16.9,25.4c-0.6,0-1,0.4-1,1s0.4,1,1,1s1-0.4,1-1      S17.4,25.4,16.9,25.4z"/>
		<path d="M24.2,28.4c-1.1,0-2-0.9-2-2s0.9-2,2-2s2,0.9,2,2S25.3,28.4,24.2,28.4z M24.2,25.4c-0.6,0-1,0.4-1,1s0.4,1,1,1      s1-0.4,1-1S24.8,25.4,24.2,25.4z"/>
	</symbol>

	<symbol viewBox="12 12 16 16" id="star">
		<path d="M23.7,27.2c-0.2,0-0.5-0.1-0.7-0.2l-2.8-1.4c-0.1-0.1-0.3-0.1-0.4,0L17,27c-0.6,0.3-1.4,0.1-1.8-0.4    c-0.3-0.3-0.4-0.8-0.3-1.2l0.4-3.1c0-0.2,0-0.3-0.1-0.4L13,19.7c-0.4-0.4-0.5-1-0.4-1.5c0.2-0.5,0.6-0.9,1.2-1l3.1-0.5    c0.2,0,0.3-0.1,0.4-0.3l1.4-2.8c0.3-0.5,0.8-0.8,1.3-0.8s1.1,0.3,1.3,0.8l1.4,2.8c0.1,0.1,0.2,0.2,0.4,0.3l3.1,0.5    c0.6,0.1,1,0.5,1.2,1c0.2,0.5,0,1.1-0.4,1.5l-2.2,2.2c-0.1,0.1-0.2,0.3-0.1,0.4l0.5,3.1c0.1,0.4-0.1,0.9-0.3,1.2    C24.5,27,24.1,27.2,23.7,27.2z"/>
	</symbol>

	<symbol viewBox="11 10 18 18" id="eye">
		<path d="M20,25.5c-3.8,0-7-2.7-8.6-4.3c-0.6-0.6-0.6-1.7,0-2.3c1.6-1.6,4.8-4.3,8.6-4.3s7,2.7,8.6,4.3c0.6,0.6,0.6,1.7,0,2.3    C27,22.8,23.8,25.5,20,25.5z M20,15.5c-3.6,0-6.7,2.8-7.9,4c-0.3,0.3-0.3,0.7,0,0.9c1.2,1.2,4.3,4,7.9,4s6.7-2.8,7.9-4    c0.3-0.3,0.3-0.7,0-0.9C26.7,18.3,23.6,15.5,20,15.5z"/>
	</symbol>

	<symbol viewBox="12 13 16 16" id="msg">
		<path fill="#231815" d="M27,26.4c-0.4,0-0.7-0.1-1-0.4l-1.6-1.4H15c-1.9,0-3.5-1.6-3.5-3.5v-4c0-1.9,1.6-3.5,3.5-3.5h10      c1.9,0,3.5,1.6,3.5,3.5v7.8C28.5,25.7,27.8,26.4,27,26.4z M15,14.6c-1.4,0-2.5,1.1-2.5,2.5v4c0,1.4,1.1,2.5,2.5,2.5h9.6      c0.1,0,0.2,0,0.3,0.1l1.8,1.6c0.3,0.3,0.8,0.1,0.8-0.4v-7.8c0-1.4-1.1-2.5-2.5-2.5H15z"/>
	</symbol>

	<symbol viewBox="12 13 15 15" id="arrow-l">
		<path d="M22,26.5c-0.1,0-0.3,0-0.4-0.1l-4.6-4.6c-0.5-0.5-0.7-1.1-0.7-1.8s0.3-1.3,0.7-1.8l4.6-4.6   c0.2-0.2,0.5-0.2,0.7,0s0.2,0.5,0,0.7l-4.6,4.6c-0.6,0.6-0.6,1.5,0,2.1l4.6,4.6c0.2,0.2,0.2,0.5,0,0.7   C22.3,26.5,22.1,26.5,22,26.5z"/>
	</symbol>

	<symbol viewBox="12 13 15 15" id="arrow-r">
		<path d="M18,26.5c-0.1,0-0.3,0-0.4-0.1c-0.2-0.2-0.2-0.5,0-0.7l4.6-4.6c0.6-0.6,0.6-1.5,0-2.1l-4.6-4.6   c-0.2-0.2-0.2-0.5,0-0.7s0.5-0.2,0.7,0l4.6,4.6c0.5,0.5,0.7,1.1,0.7,1.8s-0.3,1.3-0.7,1.8l-4.6,4.6C18.3,26.5,18.1,26.5,18,26.5z   "/>
	</symbol>

	<symbol viewBox="12 13 15 15" id="compare">
		<path d="M28,28.5H12c-0.3,0-0.5-0.2-0.5-0.5V12c0-0.3,0.2-0.5,0.5-0.5s0.5,0.2,0.5,0.5v15.5H28      c0.3,0,0.5,0.2,0.5,0.5S28.3,28.5,28,28.5z"/>
		<path d="M12,22.5c-0.2,0-0.3-0.1-0.4-0.2c-0.2-0.2-0.1-0.5,0.1-0.7l3.9-2.9c0.2-0.1,0.4-0.1,0.6,0L20,21l6.6-6.2      c0.2-0.2,0.5-0.2,0.7,0s0.2,0.5,0,0.7L20.4,22c-0.2,0.2-0.4,0.2-0.6,0.1L16,19.8l-3.6,2.7C12.2,22.5,12.1,22.5,12,22.5z"/>
		<path d="M16.4,28v-4.4h-1V28h-1v-4.9c0-0.3,0.2-0.5,0.5-0.5h2c0.3,0,0.5,0.2,0.5,0.5V28H16.4z"/>
		<path d="M20.9,28v-2.7h-1V28h-1v-3.2c0-0.3,0.2-0.5,0.5-0.5h2c0.3,0,0.5,0.2,0.5,0.5V28H20.9z"/>
		<path d="M25.4,28v-5.9h-1V28h-1v-6.4c0-0.3,0.2-0.5,0.5-0.5h2c0.3,0,0.5,0.2,0.5,0.5V28H25.4z"/>
	</symbol>

	<symbol viewBox="11.5 11.5 16.5 16.5" id="coupon">
		<path d="M19.6,28.5L19.6,28.5c-0.1,0-0.3-0.1-0.4-0.1c-0.8-0.8-2.2-0.8-2.9,0c-0.2,0.2-0.5,0.2-0.7,0l-4-4     c-0.2-0.2-0.2-0.5,0-0.7c0.8-0.8,0.8-2.1,0-2.9c-0.2-0.2-0.2-0.5,0-0.7l8.4-8.4c0.1-0.1,0.2-0.1,0.4-0.1l0,0     c0.1,0,0.3,0.1,0.4,0.1c0.8,0.8,2.1,0.8,2.9,0c0.2-0.2,0.5-0.2,0.7,0l4,4c0.2,0.2,0.2,0.5,0,0.7c-0.8,0.8-0.8,2.1,0,2.9     c0.2,0.2,0.2,0.5,0,0.7L20,28.4C19.9,28.4,19.7,28.5,19.6,28.5z M12.7,24l3.3,3.3c1-0.7,2.5-0.7,3.6,0l7.7-7.7     c-0.8-1.1-0.8-2.5,0-3.6L24,12.7c-1,0.7-2.5,0.7-3.6,0l-7.7,7.7C13.4,21.5,13.4,22.9,12.7,24z"/>
		<path d="M21,23.3c-0.2,0-0.4-0.1-0.5-0.4l-1.7-5.9c-0.1-0.3,0.1-0.5,0.3-0.6c0.3-0.1,0.5,0.1,0.6,0.3l1.7,5.9      c0.1,0.3-0.1,0.5-0.3,0.6C21.1,23.3,21.1,23.3,21,23.3z"/>
		<path d="M23,20.9c-0.6,0-1-0.4-1-1s0.4-1,1-1c0.6,0,1,0.4,1,1S23.6,20.9,23,20.9z"/>
		<path d="M17.4,20.8c-0.6,0-1-0.4-1-1s0.4-1,1-1c0.6,0,1,0.4,1,1S17.9,20.8,17.4,20.8z"/>
	</symbol>

	<symbol viewBox="11.5 11.5 16.5 16.5" id="collection">
		<path d="M26.5,27h-13c-0.8,0-1.5-0.7-1.5-1.5v-11c0-0.8,0.7-1.5,1.5-1.5h4c0.8,0,1.5,0.7,1.5,1.5v1c0,0.3,0.2,0.5,0.5,0.5h7     c0.8,0,1.5,0.7,1.5,1.5v8C28,26.3,27.3,27,26.5,27z M13.5,14c-0.3,0-0.5,0.2-0.5,0.5v11c0,0.3,0.2,0.5,0.5,0.5h13     c0.3,0,0.5-0.2,0.5-0.5v-8c0-0.3-0.2-0.5-0.5-0.5h-7c-0.8,0-1.5-0.7-1.5-1.5v-1c0-0.3-0.2-0.5-0.5-0.5H13.5z"/>
		<path d="M21.2,24.4c-0.1,0-0.3,0-0.4-0.1L20,23.9l-0.9,0.4c-0.3,0.2-0.8,0.1-1-0.2c-0.2-0.2-0.2-0.4-0.2-0.7l0.1-1l-0.7-0.7     c-0.2-0.2-0.3-0.5-0.2-0.8c0.1-0.3,0.3-0.5,0.7-0.6l1-0.2l0.5-0.9c0.3-0.6,1.2-0.6,1.5,0l0.5,0.9l1,0.2c0.3,0.1,0.6,0.3,0.7,0.6     c0.1,0.3,0,0.6-0.2,0.8l-0.7,0.7l0.1,1c0,0.2,0,0.5-0.2,0.7C21.7,24.3,21.5,24.4,21.2,24.4z M18.3,21.3l0.5,0.5     c0.2,0.2,0.3,0.5,0.2,0.7L19,23.3l0.7-0.3c0.2-0.1,0.5-0.1,0.7,0l0.7,0.3l-0.1-0.7c0-0.3,0-0.5,0.2-0.7l0.5-0.5l-0.7-0.1     c-0.3,0-0.5-0.2-0.6-0.4L20,20.1l-0.3,0.7c-0.1,0.2-0.3,0.4-0.6,0.4L18.3,21.3z"/>

	</symbol>

	<symbol viewBox="11.5 11.5 16.5 16.5" id="add-collection">
		<path d="M26.5,27h-13c-0.8,0-1.5-0.7-1.5-1.5v-11c0-0.8,0.7-1.5,1.5-1.5h4c0.8,0,1.5,0.7,1.5,1.5v1c0,0.3,0.2,0.5,0.5,0.5h7    c0.8,0,1.5,0.7,1.5,1.5v8C28,26.3,27.3,27,26.5,27z M13.5,14c-0.3,0-0.5,0.2-0.5,0.5v11c0,0.3,0.2,0.5,0.5,0.5h13    c0.3,0,0.5-0.2,0.5-0.5v-8c0-0.3-0.2-0.5-0.5-0.5h-7c-0.8,0-1.5-0.7-1.5-1.5v-1c0-0.3-0.2-0.5-0.5-0.5H13.5z"/>
		<path d="M22,22.2h-4c-0.3,0-0.5-0.2-0.5-0.5s0.2-0.5,0.5-0.5h4c0.3,0,0.5,0.2,0.5,0.5S22.3,22.2,22,22.2z"/>
		<path d="M20,24.2c-0.3,0-0.5-0.2-0.5-0.5v-4c0-0.3,0.2-0.5,0.5-0.5s0.5,0.2,0.5,0.5v4C20.5,24,20.3,24.2,20,24.2z"/>

	</symbol>

	<symbol viewBox="11.5 11.5 16.5 16.5" id="sail">
		<path d="M17.7,29.5c-0.3,0-0.6-0.1-0.8-0.3l-6-6c-0.2-0.2-0.3-0.5-0.3-0.8s0.1-0.6,0.3-0.8l8.7-8.7c0.2-0.2,0.5-0.3,0.8-0.3h6      c0.6,0,1.1,0.5,1.1,1.1v6c0,0.3-0.1,0.6-0.3,0.8l-8.7,8.7C18.2,29.4,17.9,29.5,17.7,29.5z M20.3,13.5l-8.8,8.8c0,0,0,0.1,0,0.2      l6.1,6.1c0,0,0.1,0,0.1,0l8.7-8.7l0-6.1c0-0.1,0-0.1-0.1-0.1H20.3z"/>
		<path d="M23.5,17.5c-0.3,0-0.5-0.1-0.7-0.3c-0.4-0.4-0.4-1,0-1.4c0.4-0.4,1-0.4,1.4,0c0.4,0.4,0.4,1,0,1.4      C24,17.4,23.8,17.5,23.5,17.5z"/>
	</symbol>

	<symbol viewBox="11.5 11.5 16.5 16.5" id="list">
		<path d="M25.6,15.5h-6.8c-0.3,0-0.5-0.2-0.5-0.5s0.2-0.5,0.5-0.5h6.8c0.3,0,0.5,0.2,0.5,0.5       S25.9,15.5,25.6,15.5z"/>
		<path d="M25.6,20.5h-6.8c-0.3,0-0.5-0.2-0.5-0.5s0.2-0.5,0.5-0.5h6.8c0.3,0,0.5,0.2,0.5,0.5       S25.9,20.5,25.6,20.5z"/>
		<path d="M25.6,25.5h-6.8c-0.3,0-0.5-0.2-0.5-0.5s0.2-0.5,0.5-0.5h6.8c0.3,0,0.5,0.2,0.5,0.5       S25.9,25.5,25.6,25.5z"/>
		<path d="M15,16c-0.2,0-0.4-0.1-0.6-0.2L14,15.4c-0.2-0.2-0.2-0.5,0-0.7s0.5-0.2,0.7,0l0.2,0.2l0.7-0.8      c0.2-0.2,0.5-0.2,0.7,0c0.2,0.2,0.2,0.5,0,0.7l-0.9,0.9C15.4,15.9,15.2,16,15,16C15,16,15,16,15,16z"/>
		<path d="M15,21c-0.2,0-0.4-0.1-0.6-0.2L14,20.4c-0.2-0.2-0.2-0.5,0-0.7s0.5-0.2,0.7,0l0.2,0.2l0.7-0.8      c0.2-0.2,0.5-0.2,0.7,0c0.2,0.2,0.2,0.5,0,0.7l-0.9,0.9C15.4,20.9,15.2,21,15,21C15,21,15,21,15,21z"/>
		<path d="M15,26c-0.2,0-0.4-0.1-0.6-0.2L14,25.4c-0.2-0.2-0.2-0.5,0-0.7s0.5-0.2,0.7,0l0.2,0.2l0.7-0.8      c0.2-0.2,0.5-0.2,0.7,0c0.2,0.2,0.2,0.5,0,0.7l-0.9,0.9C15.4,25.9,15.2,26,15,26C15,26,15,26,15,26z"/>
	</symbol>

	<symbol viewBox="0 0 17 17" id="phone">
		<path d="M3.37,11.09A17.55,17.55,0,0,0,9.26,15.7a9,9,0,0,0,3.29,1h.24a2.72,2.72,0,0,0,2.11-.91l0,0c.2-.24.43-.46.66-.69l.49-.49a1.66,1.66,0,0,0,0-2.48L14,10a1.69,1.69,0,0,0-1.22-.56,1.71,1.71,0,0,0-1.23.56L10.3,11.25,10,11.07a2.69,2.69,0,0,1-.38-.2A13.17,13.17,0,0,1,6.45,8,7.32,7.32,0,0,1,5.39,6.33c.33-.29.63-.6.92-.9l.32-.32a1.78,1.78,0,0,0,.58-1.25,1.74,1.74,0,0,0-.58-1.24l-1-1-.35-.36C5,1,4.78.75,4.55.53A1.74,1.74,0,0,0,3.33,0,1.75,1.75,0,0,0,2.1.54L.81,1.83A2.69,2.69,0,0,0,0,3.53,6.45,6.45,0,0,0,.5,6.3,15.9,15.9,0,0,0,3.37,11.09ZM.86,3.6a1.81,1.81,0,0,1,.55-1.17L2.69,1.14A1,1,0,0,1,3.33.85a.87.87,0,0,1,.62.3c.23.21.45.44.69.68L5,2.19l1,1a1,1,0,0,1,.32.65A1,1,0,0,1,6,4.52l-.32.32c-.33.33-.63.63-1,.93h0a.69.69,0,0,0-.17.77v0a8.08,8.08,0,0,0,1.22,2,13.66,13.66,0,0,0,3.33,3c.15.1.31.17.45.25a2.7,2.7,0,0,1,.38.21l0,0a.71.71,0,0,0,.85-.15l1.3-1.3a.89.89,0,0,1,.63-.3.87.87,0,0,1,.61.3l2.09,2.09a.83.83,0,0,1,0,1.3l-.46.46a8.65,8.65,0,0,0-.73.75,1.88,1.88,0,0,1-1.48.63h-.18a8.22,8.22,0,0,1-3-.89A16.78,16.78,0,0,1,4,10.56,15.53,15.53,0,0,1,1.29,6,5.57,5.57,0,0,1,.86,3.6Z"/>
	</symbol>

	<symbol viewBox="0 0 19 91" id="arrow-left">
		<path d="M.002 45.854l.942-.355-.942-.354L17.115-.01 18.998.7 2.02 45.499l16.978 44.8-1.883.71z"/>
	</symbol>
	<symbol viewBox="0 0 19 92" id="arrow-right">
		<path d="M18.935 45.646L18 46l.935.353-17 45-1.87-.707L16.93 46 .065 1.353l1.87-.706z"/>
	</symbol>
	<symbol viewBox="0 0 33 33" id="basket-cart">
		<path xmlns="http://www.w3.org/2000/svg" d="M28.313,33H4.688c-0.137,0-0.268-0.056-0.362-0.155c-0.094-0.099-0.144-0.232-0.138-0.369L5.313,8.851   c0.013-0.267,0.232-0.476,0.5-0.476h21.375c0.267,0,0.487,0.209,0.5,0.476l1.125,23.625c0.006,0.137-0.043,0.27-0.138,0.369   C28.58,32.944,28.449,33,28.313,33z M5.212,32h22.576L26.711,9.375H6.289L5.212,32z"/>
		<path xmlns="http://www.w3.org/2000/svg" d="M21.905,11.375c-0.276,0-0.5-0.224-0.5-0.5v-4.97C21.405,3.201,19.205,1,16.5,1s-4.905,2.201-4.905,4.905v4.97   c0,0.276-0.224,0.5-0.5,0.5s-0.5-0.224-0.5-0.5v-4.97C10.595,2.649,13.244,0,16.5,0s5.905,2.649,5.905,5.905v4.97   C22.405,11.151,22.182,11.375,21.905,11.375z"/>
	</symbol>
	<symbol viewBox="15 13 22 22" id="user-icon">
		<path d="M14 34v1h23v-1c0-5.2-5-8-11.5-8-6.6 0-11.5 2.8-11.5 8zm21.9 0H15.1c0-4.7 4-7 10.4-7s10.4 2.3 10.4 7zM21 19.4c0 2.5 2 4.6 4.5 4.6s4.5-2.1 4.5-4.6c0-2.5-2-4.4-4.5-4.4S21 17 21 19.4zm8 .1c0 1.9-1.6 3.5-3.5 3.5S22 21.4 22 19.5s1.6-3.5 3.5-3.5 3.5 1.6 3.5 3.5z"/>
	</symbol>
	<symbol viewBox="0 0 55.867 55.867" id="shield">
		<path d="M11.287,54.548c-0.207,0-0.414-0.064-0.588-0.191c-0.308-0.224-0.462-0.603-0.397-0.978l3.091-18.018L0.302,22.602    c-0.272-0.266-0.37-0.663-0.253-1.024c0.118-0.362,0.431-0.626,0.808-0.681l18.09-2.629l8.091-16.393    c0.168-0.342,0.516-0.558,0.896-0.558l0,0c0.381,0,0.729,0.216,0.896,0.558l8.09,16.393l18.091,2.629    c0.377,0.055,0.689,0.318,0.808,0.681c0.117,0.361,0.02,0.759-0.253,1.024L42.475,35.363l3.09,18.017    c0.064,0.375-0.09,0.754-0.397,0.978c-0.308,0.226-0.717,0.255-1.054,0.076l-16.18-8.506l-16.182,8.506    C11.606,54.51,11.446,54.548,11.287,54.548z M3.149,22.584l12.016,11.713c0.235,0.229,0.343,0.561,0.287,0.885L12.615,51.72    l14.854-7.808c0.291-0.154,0.638-0.154,0.931,0l14.852,7.808l-2.836-16.538c-0.056-0.324,0.052-0.655,0.287-0.885l12.016-11.713    l-16.605-2.413c-0.326-0.047-0.607-0.252-0.753-0.547L27.934,4.578l-7.427,15.047c-0.146,0.295-0.427,0.5-0.753,0.547L3.149,22.584z    "/>
	</symbol>
	<symbol viewBox="50 150 420 420" id="suit">
		<path class="fil0" d="M262.3 443.7c0.18,8.53 6.03,27.18 8.45,36.22 2.42,8.96 9.77,26.69 9.96,34.85l-40.5 0 16.19 -52.83c0.97,-3.7 1.5,-5.98 2.3,-9.73l3.6 -8.51zm-14.72 -52.51l0.55 0.53c-0.04,-0.06 -0.73,-0.35 -0.55,-0.53zm115.93 -23.7c-1.2,-1.73 -3.58,0.65 -0.47,-4.93l0.47 4.93zm-204.27 0l0.24 -4.93c3.32,5.56 1.08,2.98 -0.24,4.93zm222.68 -167.58c5.88,3.85 25.73,99.62 29.46,113.4l46.01 194.69c-1.08,5.13 1.02,1.66 -16.35,7 -6.45,1.97 -11.64,4.19 -18.79,5.01 -4.36,-6.68 -59.41,-186.48 -59.74,-190.35 -1.24,-14.62 19.41,-129.73 19.41,-129.75zm-312.87 294.55c0.02,-8.88 54.72,-236.75 60.73,-259 1.99,-7.39 5.7,-32.05 11.05,-35.55 0.15,6.17 2.49,13.97 3.83,20.18 6.5,29.7 9.33,56.82 12.91,86.32 0.77,6.52 2.73,15.78 2.44,21.91 -0.36,7.61 -8.45,29.62 -11.07,38.17 -3.75,12.18 -43.43,145.84 -48.44,153.52 -4.17,-1.02 -31.09,-8.33 -34.65,-10.75 -0.73,-5.83 0.35,-10.67 3.2,-14.8zm141.4 -275.66c1.13,13.87 5.19,29.65 8.14,43.31l28.5 127.27c-10.08,-12.6 -30.78,-70.22 -37.03,-87.26 -3.32,-9.1 -23.97,-62.57 -19.71,-70.1 2.97,-5.26 14.37,-12.32 20.1,-13.22zm65.21 170.58c-0.21,-6.96 32.82,-136.62 36.81,-170.72 11.97,5.89 13.72,6.78 21.76,16.64 -8.04,28.03 -16.31,52.28 -26.16,79.5 -5.46,15.13 -23.45,63.4 -32.41,74.58zm-58.9 -196.11c22.8,10.08 66.43,10.08 89.23,0 1.39,15.29 -25.81,130.51 -31.57,153.21l-12.12 51.47c-2.2,-2.89 -0.02,2.91 -2.62,-4.36l-4.61 -19.44c-1.85,-8.59 -4.13,-16.17 -6.08,-24.88 -5.24,-23.41 -33.62,-141.38 -32.23,-156zm99.35 14.91c-0.67,-5.91 0.63,-27.67 3.87,-31.68l14.13 20.17 -18 11.51zm-109.02 -2.79l1.28 3.27 -3.4 -1.99 -16.25 -10.36 13.93 -20.14c2.32,8.98 4.46,19.83 4.44,29.22zm7.37 -39.34c17.02,1.37 28.52,7.03 57.04,5.05l36.81 -5.05 -0.1 16.49c-13.52,8.53 -40.9,8.88 -56.96,8.88 -13.44,0 -24.5,-5.7 -36.79,-8.47l0 -16.9zm114.09 5.05c25.78,5.66 16.66,11.91 47.85,11.85l-9.35 42.21c-6.94,31.76 -18,110.9 -14.43,138.81 7.45,58.45 18.34,114.79 34.98,171.27 -9.9,12.03 -32.97,23.61 -49.85,23.63 -36.5,0.09 -51.53,-58.27 -59.3,-87.73 -3.46,-13.15 -14.76,-46.66 -6.64,-57.63 18.38,-24.82 35.83,-70.39 45.93,-98.26 6.29,-17.37 13.34,-36.4 18.53,-54.1 2.18,-7.43 8.43,-20.74 6.05,-28.11 -3.34,-10.25 -10.98,-11.73 -17.8,-19.57 7.21,-5.19 14.72,-8.12 20.99,-15.27l-16.96 -27.1zm-134.35 0c-2.67,9.12 -13.6,17.59 -16.72,27.32l21.11 14.6c-6.75,7.82 -15.3,9.08 -18.48,19.69 -2,6.64 4.48,22.84 6.96,29.62 6.76,18.35 12.65,36.59 19.32,55.04 10.39,28.66 27.43,75.9 48.75,100.74 -1.08,23.19 -20.02,88.38 -30.24,107.98 -24.66,47.4 -50.61,37.77 -89.11,10.25l19.62 -82.64c8.37,-38.69 8.84,-56.65 14.46,-89.97 4.84,-28.63 -13.16,-159.5 -25.21,-180.31 15.96,-1.61 11.02,1 26.35,-4.85 6.21,-2.38 16.49,-6.92 23.19,-7.47zm134.35 0l-1.69 -0.41 1.06 -1.28 0.63 1.69zm-134.35 0l0.47 -1.55 1.36 0.98 -1.83 0.57zm-34.96 196.39c0,39.89 -13.95,88.47 -23.19,127.66 -10.44,44.32 -20.54,41.19 15.43,62.34 11.63,6.8 23.17,10.34 37.26,9.85 31.64,-1.14 34.21,-27.32 48.27,-43.67l48.75 -0.4c11.5,14.12 22.29,66.37 85.75,34.42 9.88,-4.98 18.96,-12.4 26.51,-19.64l-20.85 -81.52c-5.7,-26.11 -13.66,-61.57 -13.66,-89.04 5.35,7.74 10.14,29.71 13.25,40.29 3.57,12.08 36.22,121.15 40.13,122.24 10.69,-0.22 38.36,-10.62 51.53,-13.54l-80.11 -339.35c-25.49,-6.72 -1.57,6.04 -41.9,-8.88 -12.32,-4.6 -27.2,-14.21 -40.33,-11.07 -59.9,14.27 -96.92,-3.04 -96.94,-3.04 -11.18,4.62 -22.23,8.96 -33.35,13.6 -3.91,1.63 -13.25,5.8 -16.88,6.46 -7.81,1.46 -14.13,-1.16 -22.33,1.46 -4.72,5.17 -37.89,149.36 -41.9,167.99 -6.07,28.2 -14.15,56.36 -20.24,84.68 -3.2,14.86 -20.52,76.59 -19.71,86.14 5.4,3.62 45.81,15.39 52.98,15.55 3.38,-13.05 9.02,-27.32 12.87,-40.63 5.45,-18.8 34.89,-116.93 38.66,-121.9z"/>
		<path class="fil0" d="M322.71 455.53c6.92,3.66 30.99,-1.37 37.44,-5.07 -3.81,-4.24 -1.18,-3.34 -6.84,-2.85 -6.43,0.55 -27.38,4.35 -30.6,7.92z"/>
		<path class="fil0" d="M162.6 450.46c6.45,3.7 30.52,8.73 37.44,5.07 -4.07,-4.52 -11.46,-4.22 -18.28,-5.5 -6.74,-1.24 -16.09,-5.25 -19.16,0.43z"/>
		<path class="fil0" d="M431.94 500.65c4.46,3.03 6.47,2.46 10.4,-2.22 -4.23,-2.85 -7.16,-1.9 -10.4,2.22z"/>
		<path class="fil0" d="M80.1 497.86c1.81,3.99 4.07,5.86 8.74,2.95 -1.41,-4.68 -3.95,-5.72 -8.74,-2.95z"/>
		<path class="fil0" d="M419.21 505.9c4.95,3.09 7.4,0.24 8.41,-4.36 -4.99,0.04 -7.79,0.29 -8.41,4.36z"/>
		<path class="fil0" d="M92.99 502.95c4.95,4.05 4.42,4.29 9.51,1.69 -4.36,-4.85 -4.16,-4.85 -9.51,-1.69z"/>
		<path class="fil0" d="M69.05 494.46c3.35,4.31 2.93,5.45 7.06,0.61 -5.29,-3.59 -0.79,-3.18 -7.06,-0.61z"/>
		<polygon class="fil0" points="445.97,497.14 451.55,497.78 449.84,492.85 "/>
		<polygon class="fil1" points="204.97,206.67 208.37,208.66 207.09,205.39 "/>
	</symbol>

	<symbol viewBox="0 0 512 512" id="icon1">
		<path d="M512,186.664c0-5.891-4.781-10.656-10.672-10.656c-4.922,0-9.062,3.344-10.281,7.891h-0.016l-10.234,38.016l-14.969,9.969    c-4.875,3.25-11.312,4.891-17.75,4.891c-6.422,0-12.859-1.641-17.75-4.891l-11.891-7.922l19.438-19.438l-0.047-0.047    c1.141-1.047,2.266-2.109,3.391-3.219c37.484-37.5,37.484-98.297-0.016-135.797c-28.016-28.031-69.047-35.109-103.656-21.234    l0.016-0.016l-0.312,0.125c-0.125,0.047-0.25,0.109-0.359,0.156L186.58,106.758c-4.047,1.656-7.562,4.047-10.469,6.953    c-8.859,8.859-12.031,22.5-6.984,34.797c5.625,13.688,19.641,21.375,33.656,19.594l-49.656,49.641l-7.297-4.859    c-4.875-3.25-11.312-4.875-17.75-4.875c-6.422,0-12.859,1.625-17.75,4.875l-28.5,19c-4.875,3.25-11.312,4.891-17.75,4.891    c-6.422,0-12.859-1.641-17.75-4.891l-15.164-10.109L20.971,183.9h-0.016c-1.219-4.547-5.352-7.891-10.289-7.891    C4.773,176.007,0,180.773,0,186.664c0,0.969,0.141,1.891,0.375,2.781H0.367l76.789,285.218h357.688l76.797-285.218h-0.016    C511.859,188.554,512,187.632,512,186.664z M287.97,113.07l-85.189,33.156c-3.547,1.453-6.641,0.609-8.156-0.031    c-1.531-0.641-4.297-2.234-5.766-5.781c-1.641-4-0.719-8.562,2.328-11.625c1-0.984,2.172-1.75,3.5-2.297l0.016-0.016l0.031-0.016    l143.922-59.688l0.031,0.375c10.547-5.547,22.359-8.484,34.625-8.484c19.953,0,38.703,7.766,52.812,21.875    S448,113.398,448,133.351s-7.766,38.703-21.875,52.812c-1.109,1.109-150.859,150.812-150.859,150.812    c-4.172,4.156-10.938,4.156-15.094,0s-4.156-10.938,0-15.094l67.891-67.875l-15.094-15.094l-98.047,98.062    c-4.156,4.156-10.922,4.156-15.094,0c-4.156-4.156-4.156-10.938,0-15.094l98.062-98.046l-15.094-15.078L169.672,321.882    c-4.172,4.156-10.938,4.156-15.094,0s-4.156-10.922,0-15.078l113.141-113.14l-15.078-15.078l-98.062,98.046    c-4.156,4.156-10.922,4.156-15.078,0s-4.156-10.922,0-15.078L287.97,113.07z M418.5,453.335h-325L39.438,252.492    c7.281,3.64,15.844,5.609,24.641,5.609c10.891,0,21.406-3,29.594-8.468l28.5-19c0.672-0.453,2.766-1.297,5.906-1.297    s5.25,0.844,5.922,1.297l3.75,2.5l-13.344,13.328c-12.484,12.5-12.484,32.765,0,45.25c2.953,2.953,6.328,5.188,9.938,6.75    c-7,12.219-5.281,28.078,5.156,38.516s26.281,12.141,38.5,5.156c1.562,3.594,3.812,6.984,6.75,9.922    c12.5,12.5,32.766,12.5,45.25,0l8.844-8.828c1.516,3.188,3.594,6.188,6.25,8.828c12.5,12.5,32.75,12.5,45.25,0l112.719-112.718    l15.438,10.297c8.188,5.469,18.688,8.468,29.578,8.468c8.734,0,17.219-1.938,24.469-5.515L418.5,453.335z"/>
	</symbol>
	<symbol viewBox="0 0 469 469" id="icon2">
			<path d="M458.667,0h-448C4.771,0,0,4.771,0,10.667v448c0,5.896,4.771,10.667,10.667,10.667h448     c5.896,0,10.667-4.771,10.667-10.667v-448C469.333,4.771,464.563,0,458.667,0z M448,234.667V448H234.667H21.333V234.667V21.333     h213.333H448V234.667z"/>
			<path d="M234.667,21.333c-117.635,0-213.333,95.698-213.333,213.333S117.031,448,234.667,448S448,352.302,448,234.667     S352.302,21.333,234.667,21.333z M234.667,426.667c-105.865,0-192-86.135-192-192s86.135-192,192-192s192,86.135,192,192     S340.531,426.667,234.667,426.667z"/>
			<circle cx="149.333" cy="234.667" r="21.333"/>
			<circle cx="234.667" cy="234.667" r="21.333"/>
			<circle cx="320" cy="234.667" r="21.333"/>
	</symbol>
	<symbol viewBox="0 0 512 512" id="icon3">
		<path xmlns="http://www.w3.org/2000/svg" d="M511.917,393.263l-38.979-292.24c-2.813-21.104-21-37.021-42.292-37.021H181.333c-5.896,0-10.667,4.771-10.667,10.667    c0,5.896,4.771,10.667,10.667,10.667h249.313c10.646,0,19.75,7.958,21.146,18.51l14.604,109.49h-81.253l58.669-44.865    c4.688-3.573,5.563-10.271,2-14.948c-3.604-4.698-10.292-5.552-14.958-1.99l-80.818,61.802H181.333    c-6.132,0-12.19,0.323-18.167,0.921l-82.021-62.723c-4.688-3.563-11.354-2.708-14.958,1.99c-3.562,4.677-2.687,11.375,2,14.948    l66.811,51.09C57.428,240.117,0,310.719,0,394.669c0,5.896,4.771,10.667,10.667,10.667H98.96l-30.772,23.531    c-4.687,3.573-5.562,10.271-2,14.948c2.104,2.75,5.271,4.188,8.479,4.188c2.271,0,4.542-0.719,6.479-2.198l52.921-40.469h243.867    l52.921,40.469c1.938,1.479,4.208,2.198,6.479,2.198c3.208,0,6.375-1.438,8.479-4.188c3.563-4.677,2.688-11.375-2-14.948    l-30.772-23.531h88.293c3.083,0,6-1.323,8.021-3.635C511.375,399.378,512.313,396.305,511.917,393.263z M322.138,234.67    L256,285.246l-66.138-50.577H322.138z M126.857,384.003H21.688c4.969-75.233,62.236-136.24,135.658-147.352l81.102,62.018    L126.857,384.003z M161.964,384.003L256,312.093l94.036,71.91H161.964z M385.143,384.003l-111.59-85.333l83.693-64H469.25    l19.896,149.333H385.143z"/>
	</symbol>
	<symbol viewBox="0 0 512 512" id="icon4">
		<path xmlns="http://www.w3.org/2000/svg" d="M511.917,393.263l-38.979-292.24c-2.813-21.104-21-37.021-42.292-37.021H181.333c-5.896,0-10.667,4.771-10.667,10.667    c0,5.896,4.771,10.667,10.667,10.667h249.313c10.646,0,19.75,7.958,21.146,18.51l14.604,109.49h-81.253l58.669-44.865    c4.688-3.573,5.563-10.271,2-14.948c-3.604-4.698-10.292-5.552-14.958-1.99l-80.818,61.802H181.333    c-6.132,0-12.19,0.323-18.167,0.921l-82.021-62.723c-4.688-3.563-11.354-2.708-14.958,1.99c-3.562,4.677-2.687,11.375,2,14.948    l66.811,51.09C57.428,240.117,0,310.719,0,394.669c0,5.896,4.771,10.667,10.667,10.667H98.96l-30.772,23.531    c-4.687,3.573-5.562,10.271-2,14.948c2.104,2.75,5.271,4.188,8.479,4.188c2.271,0,4.542-0.719,6.479-2.198l52.921-40.469h243.867    l52.921,40.469c1.938,1.479,4.208,2.198,6.479,2.198c3.208,0,6.375-1.438,8.479-4.188c3.563-4.677,2.688-11.375-2-14.948    l-30.772-23.531h88.293c3.083,0,6-1.323,8.021-3.635C511.375,399.378,512.313,396.305,511.917,393.263z M322.138,234.67    L256,285.246l-66.138-50.577H322.138z M126.857,384.003H21.688c4.969-75.233,62.236-136.24,135.658-147.352l81.102,62.018    L126.857,384.003z M161.964,384.003L256,312.093l94.036,71.91H161.964z M385.143,384.003l-111.59-85.333l83.693-64H469.25    l19.896,149.333H385.143z"/>
	</symbol>
	<symbol viewBox="0 0 512 512" id="icon5">
		<path xmlns="http://www.w3.org/2000/svg" d="M507.671,450.099l-48.624-35.939l-99.827-199.857l148.451-109.725c4.75-3.5,5.75-10.177,2.25-14.917    c-3.542-4.74-10.208-5.708-14.917-2.229L349.55,194.943L265.546,26.765c-3.625-7.237-15.458-7.237-19.083,0l-84.004,168.177    L17.005,87.432c-4.688-3.479-11.375-2.51-14.917,2.229c-3.5,4.74-2.5,11.417,2.25,14.917l148.451,109.725L52.962,414.16    L4.338,450.099c-4.75,3.5-5.75,10.177-2.25,14.917c2.104,2.823,5.333,4.323,8.583,4.323c2.208,0,4.438-0.677,6.333-2.094    l14.967-11.063l-9.509,19.036c-1.646,3.305-1.479,7.236,0.458,10.385c1.958,3.148,5.396,5.068,9.083,5.068h448    c3.688,0,7.125-1.919,9.083-5.068c1.938-3.15,2.104-7.081,0.458-10.385l-9.509-19.036l14.967,11.063    c1.896,1.417,4.125,2.094,6.333,2.094c3.25,0,6.479-1.5,8.583-4.323C513.421,460.276,512.421,453.599,507.671,450.099z     M421.162,386.157L273.937,277.338l67.767-50.089L421.162,386.157z M256.005,55.859l76.021,152.035l-76.021,56.19l-76.021-56.19    L256.005,55.859z M170.306,227.25l67.767,50.089L90.847,386.157L170.306,227.25z M49.255,469.338l20.568-41.133l186.182-137.613    l186.182,137.613l20.568,41.133H49.255z"/>
	</symbol>
	<symbol viewBox="0 0 469 469" id="icon6">
		<path xmlns="http://www.w3.org/2000/svg" d="M468.208,453.88l-224-448.453c-3.625-7.236-15.458-7.236-19.083,0l-224,448.453c-1.646,3.305-1.479,7.237,0.458,10.385    c1.958,3.149,5.396,5.068,9.083,5.068h448c3.688,0,7.125-1.919,9.083-5.068C469.688,461.117,469.854,457.186,468.208,453.88z     M27.917,448l206.75-413.479L441.417,448H27.917z"/>
	</symbol>
	<symbol viewBox="0 0 50 50" id="personal">
		<path d="M5 0h40c2.8 0 5 2.2 5 5v40c0 2.8-2.2 5-5 5H5c-2.8 0-5-2.2-5-5V5c0-2.8 2.2-5 5-5z" fill="none"/>
		<path d="M14 34v1h23v-1c0-5.2-5-8-11.5-8-6.6 0-11.5 2.8-11.5 8zm21.9 0H15.1c0-4.7 4-7 10.4-7s10.4 2.3 10.4 7zM21 19.4c0 2.5 2 4.6 4.5 4.6s4.5-2.1 4.5-4.6c0-2.5-2-4.4-4.5-4.4S21 17 21 19.4zm8 .1c0 1.9-1.6 3.5-3.5 3.5S22 21.4 22 19.5s1.6-3.5 3.5-3.5 3.5 1.6 3.5 3.5z"/>
	</symbol>
	<symbol viewBox="0 0 94.493332 122.37333" id="footerLogo">
		<g transform="matrix(1.3333333,0,0,-1.3333333,0,122.37333)">
			<g transform="scale(0.1)">
				<path d="m 32.3164,111.641 c -0.1484,-4.844 1.3945,-7.188 4.5117,-9.571 3.0742,-2.2653 6.3867,-3.0856 10.9258,-2.9098 6.2031,-0.1954 13.7774,1.2698 14.0234,8.7108 -0.0585,7.402 -9.8554,8.77 -15.4375,10.274 -19.9257,4.668 -44.66011,5.195 -44.71871,30.957 -0.08984,23.281 24.79301,29.648 43.73831,29.57 20.9101,0.195 42.7539,-5.41 44.1523,-30.313 l -28.75,-0.293 c -0.2148,4.082 -1.789,6.426 -4.3554,7.93 -2.5391,1.836 -6.1329,2.188 -9.8047,2.109 -5.3321,-0.175 -11.9922,-0.175 -12.0196,-6.679 0.2618,-9.61 22.6524,-10.196 37.1172,-13.34 19.461,-3.711 22.3633,-18.262 22.3633,-26.289 C 94.0938,86.1523 68.9727,77.4609 47.4219,77.2266 24.4922,77.1289 1.21875,84.6484 0,111.445 l 32.3164,0.196"/>
				<path d="m 442.109,114.023 c 0.02,-4.746 1.739,-7.324 4.707,-9.726 2.989,-2.207 6.211,-2.93 10.997,-2.969 6.054,0.039 13.984,1.25 13.984,8.809 -0.371,7.715 -10.02,8.828 -15.508,10.019 -19.629,5 -44.629,5.528 -44.922,31.328 0.078,22.989 24.961,29.512 43.75,29.61 21.192,0.039 43.145,-5.625 44.453,-30.41 l -29.082,-0.254 c 0,4.16 -1.601,6.504 -4.258,8.008 -2.363,1.601 -5.937,2.05 -9.707,2.011 -5.41,-0.039 -12.089,-0.195 -12.187,-6.855 0.391,-9.239 23.027,-10.098 37.344,-13.145 19.531,-3.789 22.343,-18.437 22.441,-26.094 0.039,-25.8198 -25.43,-34.5308 -47.031,-34.6675 -22.52,-0.0195 -45.899,7.3047 -47.11,34.2575 l 32.129,0.078"/>
				<path d="m 155.117,148.535 -16.609,0.02 -0.09,-36.016 c 0.168,-7.695 4.746,-9.121 11.531,-9.199 2.61,-0.078 5.371,0.469 8.137,0.469 L 158.059,80.6836 C 152.355,80.5469 144.07,79.668 138.301,79.6875 111.594,79.4141 104.609,87.207 104.426,113.418 l -0.196,34.98 -12.9917,-0.097 -0.2617,27.988 13.3324,0.02 -0.188,26.113 33.965,0.273 0.098,-26.328 16.629,0.43 0.304,-28.262"/>
				<path d="m 161.531,176.738 32.961,0.059 0.071,-13.047 0.425,0.098 c 7.746,13.476 18.293,15.8 26.106,15.918 2.429,0.058 7.644,-0.411 10.051,-1.016 l 0.347,-29.492 c -4.219,0.976 -10.703,1.328 -14.859,1.25 -15.395,-0.195 -20.949,-10.293 -20.988,-22.227 l 0.183,-47.324 -33.699,-0.2734 -0.598,96.0544"/>
				<path d="m 298.895,139.453 c -0.926,10.879 -7.215,18.32 -17.821,18.379 -11.133,-0.195 -18.64,-6.953 -20.234,-18.633 z m -38.282,-17.754 c 0.93,-13.105 8.508,-21.152 21.867,-20.918 7.415,-0.117 13.836,2.989 16.641,9.864 l 29.484,0.195 c -5.773,-22.0705 -26.054,-31.9142 -47.472,-32.1095 -31.262,-0.2539 -52.664,18.3593 -52.695,50.6645 -0.215,29.296 23.144,50.585 51.457,50.664 34.16,0.234 51.406,-25.411 50.347,-58.067 l -69.629,-0.293"/>
				<path d="m 332.434,210.938 33.894,0.39 0.781,-129.4139 -33.808,-0.293 -0.867,129.3169"/>
				<path d="m 372.988,211.23 33.575,0.372 0.703,-129.4926 -33.711,-0.3125 -0.567,129.4331"/>
				<path d="m 555.918,104.238 c 14.844,0.176 19.492,14.297 19.238,26.7 0.098,12.031 -4.746,26.894 -19.531,26.718 -14.746,-0.058 -19.434,-14.863 -19.277,-26.914 0.195,-12.148 4.746,-26.758 19.57,-26.504 z m -0.41,77.403 c 30.273,0.195 51.269,-21.602 51.465,-50.508 0.234,-28.848 -20.84,-50.6252 -51.016,-50.9572 -30.176,-0.0977 -51.23,21.4842 -51.465,50.4492 -0.156,28.672 20.957,51.035 51.016,51.016"/>
				<path d="m 609.258,179.277 32.832,0.118 0.293,-13.145 0.332,-0.02 c 5.703,10.059 13.105,16.27 27.558,16.114 31.739,0.273 38.008,-23.008 38.008,-36.797 l 0.371,-61.6212 -33.554,-0.4297 -0.176,46.5629 c -0.176,13.105 1.387,24.902 -15.82,24.961 -8.809,0 -15.567,-8.711 -15.567,-19.239 l 0.117,-52.3435 -33.906,-0.1562 -0.488,95.9957"/>
				<path d="m 0.613281,28.6719 c 0,4.0429 1.156249,7.1094 3.417969,9.1406 2.01172,1.8359 4.77734,2.7539 8.26175,2.7539 8.0898,0 12.3945,-4.082 12.914,-12.207 h -5.9961 c -0.1093,1.6797 -0.6562,3.0859 -1.6718,4.1797 -1.1836,1.3281 -2.8516,1.9922 -4.9922,1.9922 -4.09768,0 -6.15237,-1.7579 -6.15237,-5.2735 0,-2.3633 1.71094,-3.9453 5.12107,-4.7265 5.6719,-1.2891 8.8282,-2.1094 9.4688,-2.4219 3.4101,-1.7188 5.1015,-4.9414 5.1015,-9.6289 0,-4.49222 -1.3984,-7.793 -4.2109,-9.96097 C 19.6484,0.839844 16.8281,0 13.3984,0 4.53125,0 0.0703125,4.49219 0,13.4961 h 5.98828 c 0.15625,-4.98047 2.6836,-7.46094 7.58592,-7.46094 1.875,0 3.3906,0.41015 4.5117,1.23047 1.3477,0.95703 2.0039,2.4414 2.0039,4.41407 0,2.5391 -1.6718,4.2383 -5.0429,5.0976 -6.03518,1.6211 -9.16799,2.4805 -9.39065,2.5782 -3.35156,1.7383 -5.042969,4.8242 -5.042969,9.3164"/>
				<path d="m 41.457,1.07422 h 5.76172 V 8.71094 H 41.457 Z"/>
				<path d="m 92.3828,25.2734 h -5.9961 c -0.2656,2.8711 -1.1797,5.1368 -2.6953,6.7774 -1.543,1.6601 -3.4766,2.4805 -5.8203,2.4805 -2.6641,0 -4.7852,-1.2305 -6.3555,-3.711 -1.7226,-2.6562 -2.5586,-6.4062 -2.5586,-11.25 0,-4.0039 0.8594,-7.2656 2.5938,-9.78514 1.7226,-2.5 3.9453,-3.75 6.6914,-3.75 2.5898,0 4.6094,1.09375 6.0625,3.32031 1.1133,1.69923 1.8164,3.82813 2.082,6.40623 h 5.9961 C 91.3203,5.25391 86.2891,0 77.2773,0 72.7344,0 69.1914,2.03125 66.6602,6.07422 64.3281,9.76563 63.1836,14.5117 63.1836,20.2734 c 0,5.8594 1.1445,10.586 3.4766,14.1993 2.6093,4.0625 6.375,6.0937 11.289,6.0937 4.336,0 7.8047,-1.5234 10.3985,-4.5312 2.3671,-2.7539 3.7031,-6.3477 4.0351,-10.7618"/>
				<path d="m 108.816,1.07422 h 5.76172 V 8.71094 H 108.816 Z"/>
				<path d="m 170.145,6.03516 c 3.058,0 5.46,1.30859 7.218,3.96484 1.707,2.5586 2.559,5.9766 2.559,10.2734 0,4.3164 -0.867,7.7539 -2.598,10.3711 -1.726,2.5977 -4.121,3.8868 -7.179,3.8868 -3.055,0 -5.45,-1.2891 -7.176,-3.8868 -1.739,-2.6172 -2.586,-6.0547 -2.586,-10.3711 0,-4.2968 0.84,-7.7148 2.547,-10.2734 1.75,-2.65625 4.16,-3.96484 7.215,-3.96484 z M 170.145,0 c -5.25,0 -9.247,2.03125 -11.954,6.07422 -2.402,3.59375 -3.589,8.32028 -3.589,14.19918 0,5.8985 1.187,10.625 3.589,14.1993 2.707,4.0625 6.704,6.0937 11.954,6.0937 5.253,0 9.242,-2.0312 11.964,-6.0937 2.395,-3.5743 3.575,-8.3008 3.575,-14.1993 0,-5.8789 -1.18,-10.60543 -3.575,-14.19918 C 179.387,2.03125 175.398,0 170.145,0"/>
				<path d="m 206.23,22.2656 h 9.59 c 1.614,0 2.801,0.4297 3.582,1.2696 0.762,0.8398 1.157,2.3046 1.157,4.375 0,3.6914 -1.575,5.5468 -4.739,5.5468 h -9.59 z M 200.684,1.07422 V 39.4727 h 16.726 c 5.949,0 8.93,-3.4571 8.93,-10.4297 0,-2.4024 -0.422,-4.4336 -1.262,-6.0742 -0.769,-1.504 -1.808,-2.5586 -3.105,-3.1836 v -0.0977 c 1.472,-0.4687 2.507,-1.6211 3.105,-3.4961 0.488,-1.582 0.742,-3.8672 0.742,-6.89452 0,-4.04297 0.371,-6.79688 1.114,-8.22266 h -6.004 c -0.442,1.19141 -0.676,3.125 -0.676,5.80078 0,3.1641 -0.254,5.4102 -0.762,6.7383 -0.676,1.7578 -1.941,2.6367 -3.816,2.6367 H 206.23 V 1.07422 h -5.546"/>
				<path d="m 241.914,1.07422 h 5.54688 v 38.3984 H 241.914 Z"/>
				<path d="M 292.141,22.168 V 1.07422 h -3.246 l -0.782,5 C 287.02,4.17969 285.598,2.69531 283.816,1.62109 282.039,0.546875 280.117,0 278.035,0 c -5.254,0 -9.234,2.03125 -11.941,6.07422 -2.395,3.59375 -3.606,8.32028 -3.606,14.19918 0,5.8594 1.235,10.586 3.672,14.1993 2.735,4.0625 6.645,6.0937 11.738,6.0937 3.887,0 7.114,-1.3086 9.653,-3.8867 2.449,-2.5 3.804,-5.6836 4.109,-9.5703 h -5.996 c -0.469,2.4804 -1.465,4.3554 -3,5.6445 -1.355,1.1914 -2.996,1.7774 -4.922,1.7774 -6.316,0 -9.472,-4.8438 -9.472,-14.5118 0,-4.7851 0.96,-8.3789 2.851,-10.82028 1.621,-2.12891 3.742,-3.16406 6.328,-3.16406 5.156,0 8.203,3.35937 9.145,10.09764 h -7.485 v 6.0352 h 13.032"/>
				<path d="m 308.586,1.07422 h 5.53516 v 38.3984 H 308.586 Z"/>
				<path d="M 330.605,1.07422 V 39.4727 h 6.387 l 15.789,-28.8282 v 28.8282 h 5.328 V 1.07422 h -6.285 L 335.93,29.9023 V 1.07422 h -5.325"/>
				<path d="m 381.934,16.6211 h 9.101 l -4.512,16.1914 z M 371.523,1.07422 383.301,39.4727 h 6.601 L 401.66,1.07422 h -6.191 l -2.774,9.53128 H 380.254 L 377.52,1.07422 h -5.997"/>
				<path d="M 415.098,1.07422 V 39.4727 h 5.547 V 7.42188 h 16.074 V 1.07422 h -21.621"/>
				<path d="M 474.941,1.07422 V 39.4727 H 497.91 V 33.457 h -17.402 v -9.6679 h 16.68 v -6.0352 h -16.68 V 7.08984 h 17.695 V 1.07422 h -23.262"/>
				<path d="M 518.984,33.457 V 7.08984 h 7.813 c 5.508,0 8.262,4.39456 8.262,13.14456 0,5.4492 -1.036,9.1992 -3.106,11.289 -1.289,1.2891 -3.105,1.9336 -5.449,1.9336 z M 513.457,1.07422 V 39.4727 h 14.238 c 4.805,0 8.262,-1.875 10.371,-5.625 1.68,-3.1641 2.539,-7.8125 2.539,-13.9454 0,-5.0195 -0.8,-9.1992 -2.402,-12.53902 -2.051,-4.17969 -5.098,-6.28906 -9.18,-6.28906 h -15.566"/>
				<path d="m 556.055,1.07422 h 5.54688 v 38.3984 H 556.055 Z"/>
				<path d="M 585.293,1.07422 V 33.457 h -9.922 v 6.0157 h 25.391 V 33.457 H 590.84 V 1.07422 h -5.547"/>
				<path d="m 614.531,1.07422 h 5.54688 v 38.3984 H 614.531 Z"/>
				<path d="m 650.625,6.03516 c 3.047,0 5.469,1.30859 7.207,3.96484 1.699,2.5586 2.559,5.9766 2.559,10.2734 0,4.3164 -0.86,7.7539 -2.598,10.3711 -1.719,2.5977 -4.121,3.8868 -7.168,3.8868 -3.066,0 -5.469,-1.2891 -7.187,-3.8868 -1.719,-2.6172 -2.598,-6.0547 -2.598,-10.3711 0,-4.2968 0.859,-7.7148 2.558,-10.2734 1.758,-2.65625 4.161,-3.96484 7.227,-3.96484 z M 650.625,0 c -5.254,0 -9.238,2.03125 -11.973,6.07422 -2.382,3.59375 -3.574,8.32028 -3.574,14.19918 0,5.8985 1.192,10.625 3.574,14.1993 2.735,4.0625 6.719,6.0937 11.973,6.0937 5.254,0 9.238,-2.0312 11.953,-6.0937 2.383,-3.5743 3.594,-8.3008 3.594,-14.1993 0,-5.8789 -1.211,-10.60543 -3.594,-14.19918 C 659.863,2.03125 655.879,0 650.625,0"/>
				<path d="M 681.172,1.07422 V 39.4727 h 6.367 L 703.32,10.6445 v 28.8282 h 5.332 V 1.07422 h -6.269 L 686.484,29.9023 V 1.07422 h -5.312"/>
				<path d="m 358.637,361.836 57.808,-23.379 -57.808,-25.469 -58.266,24.434 58.266,24.414"/>
				<path d="m 466.836,413.223 57.754,23.379 -23.75,-58.457 -58.867,-23.067 24.863,58.145"/>
				<path d="m 504.063,368.008 -58.067,-22.403 57.285,-26.503 58.711,23.515 -57.929,25.391"/>
				<path d="m 545.762,471.676 43.066,44.941 2.324,-63.144 -44.355,-44.996 -1.035,63.199"/>
				<path d="m 598.164,445.566 -43.809,-44.238 63.106,-0.723 43.945,45.411 -63.242,-0.45"/>
				<path d="m 595.371,555.27 15.332,60.332 33.027,-53.789 -16.386,-61.114 -31.973,54.571"/>
				<path d="m 653.828,558.375 -16.426,-60.078 55.332,30.469 15.918,61.172 -54.824,-31.563"/>
				<path d="m 603.301,647.105 -4.024,62.168 48.067,-41.054 3.222,-63.145 -47.265,42.031"/>
				<path d="m 657.93,668.082 2.949,-62.227 43.223,46.055 -3.75,63.203 -42.422,-47.031"/>
				<path d="M 580.762,733.824 554.59,790.328 614.219,769.352 640,711.676 580.762,733.824"/>
				<path d="m 624.219,773.043 25.136,-56.836 23.653,58.535 -26.309,57.403 -22.48,-59.102"/>
				<path d="m 520.645,814.547 -41.407,36.308 55.606,4.493 41.562,-37.422 -55.761,-3.379"/>
				<path d="m 541.602,861.906 40.781,-37.027 -1.875,55.797 -41.836,37.09 2.93,-55.86"/>
				<path d="m 473.301,870.344 50.996,-3.379 -33.496,39.363 -51.719,2.863 34.219,-38.847"/>
				<path d="m 241.719,413.223 -57.742,23.379 23.804,-58.457 58.879,-23.067 -24.941,58.145"/>
				<path d="m 204.57,368.008 58.067,-22.403 -57.285,-26.503 -58.789,23.515 58.007,25.391"/>
				<path d="m 162.871,471.676 -43.066,44.941 -2.278,-63.144 44.297,-44.996 1.047,63.199"/>
				<path d="m 110.391,445.566 43.933,-44.238 -63.2302,-0.723 -43.875,45.411 63.1722,-0.45"/>
				<path d="M 113.215,555.27 97.8516,615.602 64.8242,561.813 81.2891,500.699 113.215,555.27"/>
				<path d="M 54.7266,558.375 71.1914,498.297 15.8789,528.766 0,589.938 54.7266,558.375"/>
				<path d="m 105.32,647.105 4.028,62.168 -48.098,-41.054 -3.2148,-63.145 47.2848,42.031"/>
				<path d="M 50.6367,668.082 47.6758,605.855 4.51172,651.91 8.3125,715.113 50.6367,668.082"/>
				<path d="m 127.859,733.824 26.106,56.504 -59.5197,-20.976 -25.8515,-57.676 59.2652,22.148"/>
				<path d="M 84.4727,773.043 59.2695,716.207 35.625,774.742 61.8633,832.145 84.4727,773.043"/>
				<path d="m 188.035,814.547 41.34,36.308 -55.723,4.493 -41.504,-37.422 55.887,-3.379"/>
				<path d="m 166.965,861.906 -40.766,-37.027 1.86,55.797 41.89,37.09 -2.984,-55.86"/>
				<path d="m 235.293,870.344 -50.898,-3.379 33.418,39.363 51.64,2.863 -34.16,-38.847"/>
				<path d="m 307.844,804.684 h 94.109 V 662.555 H 545.762 V 566.5 H 403.125 V 425.938 H 308.137 V 568.121 H 162.871 v 95.02 h 144.16 l 0.813,141.543"/>
			</g>
		</g>
	</symbol>
	<symbol viewBox="-4 0 393 393.99003" id="filter-icon">
		<path d="m368.3125 0h-351.261719c-6.195312-.0117188-11.875 3.449219-14.707031 8.960938-2.871094 5.585937-2.3671875 12.3125 1.300781 17.414062l128.6875 181.28125c.042969.0625.089844.121094.132813.183594 4.675781 6.3125 7.203125 13.957031 7.21875 21.816406v147.796875c-.027344 4.378906 1.691406 8.582031 4.777344 11.6875 3.085937 3.105469 7.28125 4.847656 11.65625 4.847656 2.226562 0 4.425781-.445312 6.480468-1.296875l72.3125-27.574218c6.480469-1.976563 10.78125-8.089844 10.78125-15.453126v-120.007812c.011719-7.855469 2.542969-15.503906 7.214844-21.816406.042969-.0625.089844-.121094.132812-.183594l128.683594-181.289062c3.667969-5.097657 4.171875-11.820313 1.300782-17.40625-2.832032-5.511719-8.511719-8.9726568-14.710938-8.960938zm-131.53125 195.992188c-7.1875 9.753906-11.074219 21.546874-11.097656 33.664062v117.578125l-66 25.164063v-142.742188c-.023438-12.117188-3.910156-23.910156-11.101563-33.664062l-124.933593-175.992188h338.070312zm0 0"/>
	</symbol>

  <symbol xmlns="http://www.w3.org/2000/svg" viewBox="0 0 232 69.999" id="logo">
    <g>
      <path class="fil0" d="M217.554 17.457c-4.619,0 -7.046,1.958 -8.885,5.105l-0.119 0 0 -4.217 -10.578 0 0 30.8 10.876 0 0 -16.796c0,-3.381 2.226,-6.161 5.08,-6.161 5.518,0 4.975,3.85 4.975,8.062l0 14.895 10.765 0 0 -19.761c0,-4.451 -1.85,-11.927 -12.115,-11.927l0.001 0zm-36.887 24.863c-4.755,0 -6.201,-4.63 -6.201,-8.545 0,-3.916 1.446,-8.603 6.201,-8.603 4.755,0 6.26,4.687 6.26,8.603 0,3.915 -1.505,8.545 -6.26,8.545zm0 -24.863c-9.696,0 -16.437,7.063 -16.437,16.318 0,9.257 6.741,16.26 16.437,16.26 9.693,0 16.497,-7.003 16.497,-16.26 0,-9.255 -6.804,-16.318 -16.497,-16.318zm-58.572 31.687l10.854 0 0 -41.519 -10.854 0 0 41.519zm-12.937 0l10.854 0 0 -41.519 -10.854 0 0 41.519zm-23.178 -18.574c0.592,-3.736 2.965,-5.947 6.528,-5.947 3.381,0 5.475,2.507 5.655,5.947l-12.183 0zm6.186 -13.113c-9.078,0 -16.613,6.764 -16.613,16.201 0,10.324 6.824,16.377 16.852,16.377 6.882,0 13.469,-3.088 15.308,-10.208l-9.434 0c-0.95,2.254 -2.982,3.128 -5.415,3.128 -4.272,0 -6.708,-2.533 -6.884,-6.747l22.268 0c0.475,-10.444 -5.046,-18.751 -16.082,-18.751zm-15.626 0.341c-0.771,-0.176 -2.453,-0.321 -3.224,-0.321 -2.55,0 -5.868,0.748 -8.406,5.085l-0.12 0 0 -4.217 -10.64 0 0 30.799 10.939 0 0 -15.25c0,-3.856 1.761,-7.043 6.744,-7.043 1.366,0 3.401,0.068 4.707,0.424l0 -9.477 0 0zm-29.855 21.079l0 -11.54 5.382 0 0 -8.992 -5.382 0 0 -8.466 -10.939 0 0 8.466 -4.254 0 0 8.992 4.254 0 0 11.244c0,8.366 2.197,10.859 10.8,10.859 1.841,0 4.53,-0.239 6.369,-0.295l0 -7.419c-0.891,0 -1.782,0.119 -2.613,0.119 -2.194,0 -3.617,-0.532 -3.617,-2.968l0 0zm110.223 -8.298c-4.628,-1.008 -11.902,-1.375 -11.902,-4.28 0,-2.138 2.163,-2.228 3.822,-2.228 1.247,0 2.374,0.15 3.205,0.685 0.831,0.533 1.306,1.278 1.306,2.584l9.317 0c-0.356,-8.01 -7.416,-9.883 -14.183,-9.883 -6.05,0 -14.064,2.018 -14.064,9.434 0,8.309 7.951,8.485 14.303,10.088 1.781,0.415 4.923,0.89 4.923,3.267 0,2.43 -2.533,2.837 -4.491,2.837 -1.423,0 -2.535,-0.273 -3.486,-0.984 -1.007,-0.772 -1.491,-1.56 -1.491,-3.102l-10.29 0c0.296,8.602 7.772,11.038 15.071,11.038 6.943,0 15.117,-2.732 15.117,-10.979 0,-2.552 -0.925,-7.231 -7.157,-8.477zm-131.637 0c-4.63,-1.008 -11.904,-1.375 -11.904,-4.28 0,-2.138 2.163,-2.228 3.822,-2.228 1.246,0 2.373,0.15 3.204,0.685 0.834,0.533 1.306,1.278 1.306,2.584l9.318 0c-0.356,-8.01 -7.419,-9.883 -14.184,-9.883 -6.053,0 -14.064,2.018 -14.064,9.434 0,8.309 7.952,8.485 14.303,10.088 1.779,0.415 4.923,0.89 4.923,3.267 0,2.43 -2.532,2.837 -4.49,2.837 -1.426,0 -2.536,-0.273 -3.483,-0.984 -1.011,-0.772 -1.494,-1.56 -1.494,-3.102l-10.291 0c0.296,8.602 7.772,11.038 15.071,11.038 6.944,0 15.114,-2.732 15.114,-10.979 0,-2.552 -0.922,-7.231 -7.151,-8.477l0 0z"/>
        <path class="fil0" d="M111.615 61.842l0 -0.725c-0.365,0.569 -0.9,0.853 -1.606,0.853 -0.458,0 -0.879,-0.125 -1.263,-0.375 -0.384,-0.253 -0.68,-0.607 -0.891,-1.059 -0.213,-0.452 -0.318,-0.97 -0.318,-1.559 0,-0.575 0.096,-1.093 0.287,-1.56 0.191,-0.466 0.478,-0.825 0.859,-1.073 0.382,-0.247 0.811,-0.373 1.281,-0.373 0.347,0 0.654,0.072 0.925,0.217 0.27,0.148 0.489,0.339 0.66,0.572l0 -2.843 0.968 0 0 7.925 -0.902 0 0 0zm-3.077 -2.865c0,0.734 0.154,1.286 0.464,1.647 0.31,0.365 0.678,0.547 1.098,0.547 0.425,0 0.786,-0.174 1.085,-0.521 0.296,-0.347 0.444,-0.879 0.444,-1.591 0,-0.788 -0.148,-1.363 -0.453,-1.73 -0.301,-0.37 -0.677,-0.552 -1.118,-0.552 -0.433,0 -0.794,0.176 -1.084,0.529 -0.291,0.353 -0.436,0.911 -0.436,1.671l0 0z"/>
        <path class="fil0" d="M118.299 59.993l1.005 0.125c-0.16,0.586 -0.453,1.041 -0.883,1.366 -0.427,0.324 -0.976,0.486 -1.641,0.486 -0.84,0 -1.506,-0.256 -1.998,-0.774 -0.493,-0.517 -0.74,-1.243 -0.74,-2.177 0,-0.964 0.25,-1.716 0.748,-2.248 0.498,-0.532 1.141,-0.8 1.935,-0.8 0.766,0 1.395,0.262 1.881,0.783 0.487,0.524 0.729,1.258 0.729,2.206 0,0.056 -0.003,0.145 -0.006,0.259l-4.28 0c0.034,0.631 0.214,1.115 0.535,1.451 0.322,0.333 0.72,0.501 1.198,0.501 0.359,0 0.663,-0.094 0.917,-0.282 0.25,-0.185 0.452,-0.484 0.6,-0.897l0 0.001zm-3.195 -1.574l3.204 0c-0.043,-0.481 -0.165,-0.845 -0.367,-1.084 -0.311,-0.376 -0.712,-0.564 -1.207,-0.564 -0.447,0 -0.819,0.151 -1.124,0.45 -0.307,0.298 -0.475,0.697 -0.506,1.198l0 0z"/>
        <path class="fil0" d="M120.456 60.126l0.962 -0.147c0.054,0.383 0.205,0.679 0.452,0.885 0.248,0.204 0.593,0.307 1.036,0.307 0.447,0 0.777,-0.091 0.994,-0.274 0.216,-0.181 0.324,-0.395 0.324,-0.64 0,-0.219 -0.094,-0.392 -0.284,-0.518 -0.134,-0.088 -0.467,-0.196 -0.996,-0.33 -0.714,-0.179 -1.21,-0.336 -1.483,-0.467 -0.276,-0.133 -0.487,-0.315 -0.629,-0.546 -0.142,-0.233 -0.213,-0.489 -0.213,-0.771 0,-0.256 0.059,-0.493 0.176,-0.711 0.117,-0.217 0.276,-0.399 0.478,-0.544 0.151,-0.111 0.359,-0.205 0.618,-0.282 0.261,-0.08 0.543,-0.117 0.842,-0.117 0.45,0 0.845,0.066 1.187,0.194 0.341,0.131 0.591,0.304 0.754,0.527 0.162,0.222 0.273,0.518 0.333,0.89l-0.951 0.131c-0.042,-0.299 -0.167,-0.526 -0.375,-0.694 -0.205,-0.165 -0.498,-0.248 -0.877,-0.248 -0.446,0 -0.765,0.074 -0.959,0.222 -0.19,0.148 -0.284,0.322 -0.284,0.518 0,0.125 0.039,0.239 0.116,0.342 0.08,0.105 0.205,0.19 0.376,0.259 0.097,0.034 0.384,0.119 0.86,0.25 0.685,0.182 1.166,0.333 1.439,0.45 0.271,0.117 0.484,0.287 0.641,0.509 0.153,0.225 0.233,0.501 0.233,0.834 0,0.324 -0.097,0.629 -0.285,0.916 -0.19,0.287 -0.461,0.51 -0.819,0.666 -0.356,0.157 -0.76,0.233 -1.209,0.233 -0.746,0 -1.315,-0.153 -1.708,-0.463 -0.39,-0.311 -0.64,-0.769 -0.748,-1.38l-0.001 -0.001z"/>
        <path class="fil0" d="M126.708 55.035l0 -1.118 0.974 0 0 1.118 -0.974 0zm0 6.807l0 -5.742 0.974 0 0 5.742 -0.974 0z"/>
        <path class="fil0" d="M129.304 62.318l0.948 0.139c0.039,0.293 0.147,0.507 0.33,0.64 0.241,0.18 0.572,0.271 0.987,0.271 0.453,0 0.8,-0.091 1.044,-0.271 0.245,-0.182 0.413,-0.435 0.498,-0.757 0.052,-0.199 0.074,-0.615 0.072,-1.249 -0.427,0.501 -0.957,0.751 -1.591,0.751 -0.788,0 -1.4,-0.284 -1.833,-0.854 -0.433,-0.569 -0.649,-1.252 -0.649,-2.051 0,-0.547 0.1,-1.053 0.299,-1.514 0.197,-0.464 0.484,-0.822 0.862,-1.073 0.376,-0.253 0.82,-0.379 1.327,-0.379 0.677,0 1.237,0.274 1.676,0.823l0 -0.695 0.896 0 0 4.963c0,0.894 -0.091,1.529 -0.273,1.902 -0.182,0.372 -0.469,0.665 -0.865,0.881 -0.393,0.22 -0.88,0.328 -1.457,0.328 -0.683,0 -1.238,-0.157 -1.659,-0.464 -0.421,-0.307 -0.626,-0.771 -0.612,-1.391l0 0zm0.808 -3.449c0,0.751 0.148,1.303 0.447,1.647 0.299,0.348 0.674,0.521 1.124,0.521 0.447,0 0.822,-0.173 1.124,-0.518 0.304,-0.341 0.455,-0.882 0.455,-1.616 0,-0.706 -0.156,-1.235 -0.467,-1.591 -0.313,-0.359 -0.688,-0.535 -1.13,-0.535 -0.429,0 -0.796,0.174 -1.101,0.526 -0.301,0.353 -0.452,0.874 -0.452,1.566l0 0z"/>
        <path class="fil0" d="M135.963 61.842l0 -5.742 0.874 0 0 0.816c0.424,-0.628 1.032,-0.945 1.829,-0.945 0.345,0 0.664,0.06 0.954,0.185 0.29,0.126 0.506,0.288 0.651,0.49 0.142,0.202 0.245,0.441 0.302,0.72 0.037,0.179 0.054,0.495 0.054,0.945l0 3.531 -0.973 0 0 -3.491c0,-0.399 -0.037,-0.695 -0.114,-0.891 -0.077,-0.196 -0.21,-0.353 -0.401,-0.47 -0.194,-0.116 -0.422,-0.176 -0.678,-0.176 -0.415,0 -0.774,0.131 -1.075,0.395 -0.302,0.262 -0.45,0.76 -0.45,1.497l0 3.136 -0.973 0 0 0z"/>
        <path class="fil0" d="M146.37 59.993l1.005 0.125c-0.157,0.586 -0.45,1.041 -0.88,1.366 -0.43,0.324 -0.976,0.486 -1.645,0.486 -0.839,0 -1.505,-0.256 -1.998,-0.774 -0.492,-0.517 -0.737,-1.243 -0.737,-2.177 0,-0.964 0.251,-1.716 0.746,-2.248 0.498,-0.532 1.144,-0.8 1.935,-0.8 0.768,0 1.397,0.262 1.881,0.783 0.487,0.524 0.732,1.258 0.732,2.206 0,0.056 -0.003,0.145 -0.006,0.259l-4.28 0c0.034,0.631 0.213,1.115 0.535,1.451 0.322,0.333 0.72,0.501 1.198,0.501 0.359,0 0.663,-0.094 0.913,-0.282 0.254,-0.185 0.453,-0.484 0.601,-0.897l0 0.001zm-3.196 -1.574l3.207 0c-0.042,-0.481 -0.165,-0.845 -0.367,-1.084 -0.31,-0.376 -0.712,-0.564 -1.206,-0.564 -0.447,0 -0.823,0.151 -1.128,0.45 -0.304,0.298 -0.472,0.697 -0.506,1.198l0 0z"/>
        <path class="fil0" d="M152.645 61.842l0 -0.725c-0.365,0.569 -0.9,0.853 -1.608,0.853 -0.458,0 -0.877,-0.125 -1.261,-0.375 -0.384,-0.253 -0.683,-0.607 -0.89,-1.059 -0.214,-0.452 -0.319,-0.97 -0.319,-1.559 0,-0.575 0.096,-1.093 0.287,-1.56 0.191,-0.466 0.478,-0.825 0.86,-1.073 0.381,-0.247 0.811,-0.373 1.28,-0.373 0.347,0 0.655,0.072 0.925,0.217 0.27,0.148 0.489,0.339 0.66,0.572l0 -2.843 0.968 0 0 7.925 -0.902 0 0 0zm-3.076 -2.865c0,0.734 0.153,1.286 0.463,1.647 0.311,0.365 0.675,0.547 1.099,0.547 0.424,0 0.785,-0.174 1.084,-0.521 0.296,-0.347 0.444,-0.879 0.444,-1.591 0,-0.788 -0.151,-1.363 -0.453,-1.73 -0.304,-0.37 -0.677,-0.552 -1.121,-0.552 -0.432,0 -0.791,0.176 -1.081,0.529 -0.29,0.353 -0.435,0.911 -0.435,1.671l0 0z"/>
        <path class="fil0" d="M158.8 55.035l0 -1.118 0.973 0 0 1.118 -0.973 0zm0 6.807l0 -5.742 0.973 0 0 5.742 -0.973 0z"/>
        <path class="fil0" d="M161.575 61.842l0 -5.742 0.876 0 0 0.816c0.422,-0.628 1.03,-0.945 1.827,-0.945 0.345,0 0.666,0.06 0.954,0.185 0.29,0.126 0.509,0.288 0.651,0.49 0.145,0.202 0.245,0.441 0.305,0.72 0.034,0.179 0.051,0.495 0.051,0.945l0 3.531 -0.971 0 0 -3.491c0,-0.399 -0.039,-0.695 -0.114,-0.891 -0.076,-0.196 -0.21,-0.353 -0.403,-0.47 -0.194,-0.116 -0.419,-0.176 -0.678,-0.176 -0.415,0 -0.774,0.131 -1.072,0.395 -0.302,0.262 -0.453,0.76 -0.453,1.497l0 3.136 -0.973 0z"/>
        <path class="fil0" d="M171.06 60.126l0.965 -0.147c0.054,0.383 0.202,0.679 0.449,0.885 0.247,0.204 0.595,0.307 1.036,0.307 0.447,0 0.78,-0.091 0.996,-0.274 0.216,-0.181 0.325,-0.395 0.325,-0.64 0,-0.219 -0.097,-0.392 -0.288,-0.518 -0.134,-0.088 -0.464,-0.196 -0.996,-0.33 -0.711,-0.179 -1.207,-0.336 -1.483,-0.467 -0.276,-0.133 -0.486,-0.315 -0.626,-0.546 -0.142,-0.233 -0.213,-0.489 -0.213,-0.771 0,-0.256 0.057,-0.493 0.174,-0.711 0.116,-0.217 0.278,-0.399 0.48,-0.544 0.148,-0.111 0.356,-0.205 0.618,-0.282 0.262,-0.08 0.541,-0.117 0.842,-0.117 0.447,0 0.845,0.066 1.184,0.194 0.341,0.131 0.592,0.304 0.754,0.527 0.163,0.222 0.276,0.518 0.336,0.89l-0.95 0.131c-0.043,-0.299 -0.171,-0.526 -0.376,-0.694 -0.208,-0.165 -0.501,-0.248 -0.879,-0.248 -0.447,0 -0.766,0.074 -0.957,0.222 -0.19,0.148 -0.287,0.322 -0.287,0.518 0,0.125 0.04,0.239 0.12,0.342 0.079,0.105 0.202,0.19 0.372,0.259 0.097,0.034 0.385,0.119 0.86,0.25 0.689,0.182 1.169,0.333 1.44,0.45 0.273,0.117 0.486,0.287 0.64,0.509 0.157,0.225 0.233,0.501 0.233,0.834 0,0.324 -0.093,0.629 -0.282,0.916 -0.19,0.287 -0.463,0.51 -0.819,0.666 -0.359,0.157 -0.763,0.233 -1.212,0.233 -0.746,0 -1.315,-0.153 -1.705,-0.463 -0.393,-0.311 -0.64,-0.769 -0.751,-1.38l0 -0.001z"/>
        <path class="fil0" d="M178.368 61.842l-1.759 -5.742 1.007 0 0.914 3.315 0.341 1.232c0.015,-0.063 0.111,-0.455 0.296,-1.184l0.914 -3.364 0.999 0 0.859 3.33 0.287 1.098 0.331 -1.106 0.984 -3.322 0.945 0 -1.796 5.743 -1.01 0 -0.914 -3.44 -0.222 -0.977 -1.161 4.417 -1.015 0 0 0z"/>
        <path class="fil0" d="M185.63 55.035l0 -1.118 0.973 0 0 1.118 -0.973 0zm0 6.807l0 -5.742 0.973 0 0 5.742 -0.973 0z"/>
        <path class="fil0" d="M190.528 60.971l0.142 0.86c-0.273,0.057 -0.521,0.085 -0.734,0.085 -0.356,0 -0.629,-0.054 -0.823,-0.167 -0.193,-0.111 -0.333,-0.257 -0.412,-0.442 -0.077,-0.179 -0.117,-0.563 -0.117,-1.147l0 -3.304 -0.714 0 0 -0.756 0.714 0 0 -1.42 0.967 -0.587 0 2.007 0.977 0 0 0.756 -0.977 0 0 3.359c0,0.276 0.018,0.455 0.052,0.534 0.034,0.08 0.088,0.143 0.168,0.189 0.076,0.048 0.188,0.07 0.33,0.07 0.108,0 0.25,-0.011 0.426,-0.037l0.001 0z"/>
        <path class="fil0" d="M191.572 61.842l0 -0.791 3.657 -4.195c-0.416,0.023 -0.783,0.035 -1.099,0.035l-2.342 0 0 -0.791 4.693 0 0 0.643 -3.108 3.645 -0.6 0.663c0.435,-0.031 0.845,-0.048 1.226,-0.048l2.656 0 0 0.84 -5.083 0 0 -0.001z"/>
        <path class="fil0" d="M201.589 59.993l1.005 0.125c-0.16,0.586 -0.453,1.041 -0.88,1.366 -0.429,0.324 -0.979,0.486 -1.644,0.486 -0.84,0 -1.506,-0.256 -1.998,-0.774 -0.493,-0.517 -0.737,-1.243 -0.737,-2.177 0,-0.964 0.247,-1.716 0.745,-2.248 0.498,-0.532 1.144,-0.8 1.936,-0.8 0.768,0 1.394,0.262 1.881,0.783 0.486,0.524 0.731,1.258 0.731,2.206 0,0.056 -0.003,0.145 -0.008,0.259l-4.281 0c0.038,0.631 0.214,1.115 0.535,1.451 0.322,0.333 0.72,0.501 1.201,0.501 0.356,0 0.661,-0.094 0.914,-0.282 0.253,-0.185 0.452,-0.484 0.6,-0.897l0 0.001zm-3.196 -1.574l3.207 0c-0.045,-0.481 -0.167,-0.845 -0.369,-1.084 -0.308,-0.376 -0.712,-0.564 -1.204,-0.564 -0.447,0 -0.823,0.151 -1.127,0.45 -0.305,0.298 -0.476,0.697 -0.507,1.198l0 0z"/>
        <path class="fil0" d="M204.127 61.842l0 -5.742 0.874 0 0 0.87c0.225,-0.406 0.43,-0.674 0.621,-0.805 0.187,-0.128 0.395,-0.194 0.623,-0.194 0.327,0 0.66,0.106 1.001,0.314l-0.335 0.902c-0.239,-0.14 -0.476,-0.211 -0.715,-0.211 -0.213,0 -0.404,0.066 -0.572,0.194 -0.17,0.125 -0.29,0.304 -0.364,0.532 -0.105,0.344 -0.162,0.723 -0.162,1.135l0 3.005 -0.971 0z"/>
        <polygon class="fil0" points="208.123,61.842 208.123,53.917 209.096,53.917 209.096,61.842 "/>
        <path class="fil0" d="M214.671 61.134c-0.358,0.304 -0.706,0.523 -1.038,0.648 -0.336,0.126 -0.692,0.188 -1.073,0.188 -0.632,0 -1.119,-0.153 -1.457,-0.46 -0.336,-0.308 -0.507,-0.703 -0.507,-1.181 0,-0.282 0.063,-0.538 0.191,-0.772 0.128,-0.233 0.296,-0.418 0.503,-0.558 0.208,-0.142 0.441,-0.247 0.7,-0.318 0.191,-0.051 0.478,-0.1 0.865,-0.148 0.786,-0.094 1.364,-0.205 1.736,-0.336 0.003,-0.134 0.006,-0.216 0.006,-0.253 0,-0.396 -0.091,-0.675 -0.276,-0.837 -0.25,-0.219 -0.618,-0.33 -1.11,-0.33 -0.458,0 -0.794,0.08 -1.013,0.239 -0.216,0.163 -0.378,0.444 -0.484,0.854l-0.95 -0.131c0.085,-0.407 0.228,-0.737 0.426,-0.988 0.2,-0.25 0.484,-0.441 0.86,-0.577 0.376,-0.134 0.808,-0.202 1.303,-0.202 0.49,0 0.888,0.057 1.196,0.173 0.304,0.114 0.529,0.26 0.674,0.436 0.145,0.174 0.245,0.392 0.302,0.66 0.034,0.168 0.048,0.464 0.048,0.899l0 1.298c0,0.905 0.023,1.474 0.063,1.716 0.042,0.239 0.125,0.469 0.247,0.689l-1.016 0c-0.102,-0.203 -0.167,-0.439 -0.196,-0.709l0 0zm-0.08 -2.174c-0.352,0.145 -0.885,0.267 -1.59,0.37 -0.399,0.056 -0.683,0.119 -0.848,0.193 -0.166,0.071 -0.294,0.176 -0.385,0.316 -0.091,0.14 -0.133,0.293 -0.133,0.461 0,0.262 0.096,0.475 0.293,0.649 0.196,0.174 0.484,0.262 0.862,0.262 0.376,0 0.709,-0.083 1.002,-0.248 0.29,-0.165 0.506,-0.39 0.64,-0.671 0.108,-0.223 0.159,-0.547 0.159,-0.974l0 -0.358 0 0z"/>
        <path class="fil0" d="M217.403 61.842l0 -5.742 0.876 0 0 0.816c0.422,-0.628 1.031,-0.945 1.828,-0.945 0.347,0 0.665,0.06 0.956,0.185 0.287,0.126 0.504,0.288 0.648,0.49 0.146,0.202 0.248,0.441 0.305,0.72 0.037,0.179 0.054,0.495 0.054,0.945l0 3.531 -0.973 0 0 -3.491c0,-0.399 -0.04,-0.695 -0.114,-0.891 -0.077,-0.196 -0.21,-0.353 -0.404,-0.47 -0.19,-0.116 -0.418,-0.176 -0.677,-0.176 -0.416,0 -0.771,0.131 -1.073,0.395 -0.302,0.262 -0.453,0.76 -0.453,1.497l0 3.136 -0.973 0 0 0z"/>
        <path class="fil0" d="M227.608 61.842l0 -0.725c-0.364,0.569 -0.899,0.853 -1.605,0.853 -0.458,0 -0.879,-0.125 -1.264,-0.375 -0.384,-0.253 -0.68,-0.607 -0.89,-1.059 -0.214,-0.452 -0.319,-0.97 -0.319,-1.559 0,-0.575 0.097,-1.093 0.287,-1.56 0.191,-0.466 0.479,-0.825 0.86,-1.073 0.381,-0.247 0.808,-0.373 1.28,-0.373 0.348,0 0.655,0.072 0.925,0.217 0.271,0.148 0.49,0.339 0.661,0.572l0 -2.843 0.967 0 0 7.925 -0.902 0 0 0zm-3.076 -2.865c0,0.734 0.153,1.286 0.464,1.647 0.31,0.365 0.677,0.547 1.098,0.547 0.424,0 0.786,-0.174 1.084,-0.521 0.296,-0.347 0.444,-0.879 0.444,-1.591 0,-0.788 -0.151,-1.363 -0.452,-1.73 -0.305,-0.37 -0.677,-0.552 -1.118,-0.552 -0.433,0 -0.795,0.176 -1.085,0.529 -0.29,0.353 -0.435,0.911 -0.435,1.671l0 0z"/>
   </g>
  </symbol>


	<use xlink:href="#vk" width="99" height="99" x="0" y="0"/>
	<use xlink:href="#odn" width="99" height="99" x="100" y="0"/>
	<use xlink:href="#user" width="40" height="40" x="300" y="0"/>
	<use xlink:href="#gramm" width="40" height="40" x="400" y="0"/>
	<use xlink:href="#search" width="40" height="40" x="500" y="0"/>
	<use xlink:href="#cart" width="40" height="40" x="600" y="0"/>
	<use xlink:href="#eye" width="40" height="40" x="700" y="0"/>
	<use xlink:href="#compare" width="40" height="40" x="800" y="0"/>
	<use xlink:href="#msg" width="40" height="40" x="900" y="0"/>
	<use xlink:href="#arrow-r" width="40" height="40" x="1000" y="0"/>
	<use xlink:href="#arrow-l" width="40" height="40" x="1100" y="0"/>
	<use xlink:href="#coupon" width="40" height="40" x="1200" y="0"/>
	<use xlink:href="#collection" width="40" height="40" x="1300" y="0"/>
	<use xlink:href="#add-collection" width="40" height="40" x="1400" y="0"/>
	<use xlink:href="#sail" width="40" height="40" x="1500" y="0"/>
	<use xlink:href="#list" width="40" height="40" x="1600" y="0"/>
	<use xlink:href="#phone" width="17" height="17" x="1700" y="0"/>
	<use xlink:href="#arrow-left" width="100%" height="100%" x="1800" y="0"/>
	<use xlink:href="#arrow-right" width="100%" height="100%" x="1900" y="0"/>
	<use xlink:href="#fb" width="100%" height="100%" x="2200" y="0"/>
	<use xlink:href="#inst" width="100%" height="100%" x="2700" y="0"/>
	<use xlink:href="#basket-cart" width="100%" height="100%" x="00" y="300"/>
	<use xlink:href="#user-icon" width="100%" height="100%" x="500" y="300"/>
	<use xlink:href="#suit" width="100%" height="100%" x="4000" y="4000"/>
	<use xlink:href="#shield" width="100%" height="100%" x="7000" y="7000"/>
	<use xlink:href="#icon1" width="100%" height="100%" x="10000" y="10000"/>
	<use xlink:href="#icon2" width="100%" height="100%" x="11000" y="11000"/>
	<use xlink:href="#icon3" width="100%" height="100%" x="12000" y="12000"/>
	<use xlink:href="#icon4" width="100%" height="100%" x="13000" y="13000"/>
	<use xlink:href="#icon5" width="100%" height="100%" x="14000" y="14000"/>
	<use xlink:href="#icon6" width="100%" height="100%" x="15000" y="15000"/>
	<use xlink:href="#footerLogo" width="100%" height="100%" x="16000" y="16000"/>
	<use xlink:href="#personal" width="99" height="99" x="17000" y="17000"/>
	<use xlink:href="#filter-icon" width="100%" height="100%" x="18000" y="17000"/>
</svg>